<svg width="449" height="400" viewBox="0 0 449 400" fill="none" xmlns="http://www.w3.org/2000/svg">
<path d="M226.991 399.532C349.187 399.532 448.246 393.265 448.246 385.533C448.246 377.802 349.187 371.534 226.991 371.534C104.795 371.534 5.73584 377.802 5.73584 385.533C5.73584 393.265 104.795 399.532 226.991 399.532Z" fill="#FECACA"/>
<path d="M409.631 132.307C409.631 133.504 409.143 134.596 408.348 135.386C407.563 136.181 406.472 136.669 405.274 136.669H312.03C309.635 136.669 307.673 134.707 307.673 132.307C307.673 131.11 308.161 130.018 308.956 129.228C309.741 128.433 310.833 127.945 312.03 127.945H316.437C318.178 123.9 322.198 121.073 326.876 121.073C330.025 121.073 332.873 122.356 334.936 124.424C337.683 119.765 342.749 116.636 348.55 116.636C350.145 116.636 351.679 116.877 353.128 117.315C356.162 111.61 362.159 107.726 369.071 107.726C377.372 107.726 384.355 113.331 386.463 120.958C387.992 120.193 389.718 119.756 391.549 119.756C396.726 119.756 401.093 123.212 402.466 127.946H405.274C407.669 127.945 409.631 129.907 409.631 132.307Z" fill="#FECACA"/>
<path d="M87.888 56.326C87.888 57.358 87.467 58.299 86.782 58.98C86.105 59.665 85.164 60.086 84.132 60.086H3.756C1.692 60.086 0 58.395 0 56.326C0 55.294 0.421001 54.353 1.106 53.672C1.782 52.987 2.724 52.566 3.756 52.566H7.555C9.056 49.079 12.521 46.642 16.554 46.642C19.269 46.642 21.723 47.748 23.502 49.53C25.87 45.514 30.237 42.817 35.237 42.817C36.612 42.817 37.934 43.025 39.183 43.402C41.798 38.484 46.967 35.136 52.926 35.136C60.082 35.136 66.101 39.967 67.918 46.542C69.236 45.883 70.724 45.506 72.302 45.506C76.765 45.506 80.529 48.485 81.713 52.566H84.133C86.197 52.566 87.888 54.258 87.888 56.326Z" fill="#FECACA"/>
<path d="M237.446 36.1771C237.446 37.2231 237.02 38.1761 236.326 38.8661C235.64 39.5601 234.687 39.9871 233.641 39.9871H152.197C150.105 39.9871 148.391 38.2731 148.391 36.1771C148.391 35.1311 148.817 34.1781 149.512 33.4881C150.197 32.7941 151.151 32.3671 152.197 32.3671H156.046C157.566 28.8341 161.077 26.3641 165.164 26.3641C167.915 26.3641 170.402 27.4841 172.204 29.2911C174.603 25.2221 179.028 22.4891 184.095 22.4891C185.488 22.4891 186.828 22.7001 188.094 23.0821C190.744 18.0991 195.982 14.7061 202.02 14.7061C209.271 14.7061 215.37 19.6021 217.211 26.2631C218.547 25.5951 220.054 25.2131 221.654 25.2131C226.176 25.2131 229.99 28.2321 231.19 32.3671H233.642C235.732 32.3671 237.446 34.0811 237.446 36.1771Z" fill="#FECACA"/>
<path d="M413.275 105.922C416.307 105.922 418.774 108.389 418.774 111.421C418.774 114.453 416.307 116.92 413.275 116.92C410.243 116.92 407.776 114.453 407.776 111.421C407.776 108.389 410.243 105.922 413.275 105.922ZM413.275 107.647C411.194 107.647 409.501 109.34 409.501 111.421C409.501 113.502 411.194 115.195 413.275 115.195C415.356 115.195 417.049 113.502 417.049 111.421C417.049 109.34 415.356 107.647 413.275 107.647Z" fill="#2A365C"/>
<path d="M407.68 77.9722C410.712 77.9722 413.179 80.4392 413.179 83.4712C413.179 86.5032 410.712 88.9702 407.68 88.9702C404.648 88.9702 402.181 86.5032 402.181 83.4712C402.181 80.4392 404.648 77.9722 407.68 77.9722ZM407.68 79.6982C405.599 79.6982 403.906 81.3912 403.906 83.4722C403.906 85.5532 405.599 87.2462 407.68 87.2462C409.761 87.2462 411.454 85.5532 411.454 83.4722C411.454 81.3912 409.761 79.6982 407.68 79.6982Z" fill="#61B3FF"/>
<path d="M390.952 70.2282C390.952 70.7042 391.338 71.0912 391.815 71.0912H395.619C396.096 71.0912 396.482 70.7052 396.482 70.2282C396.482 69.7522 396.096 69.3652 395.619 69.3652H391.815C391.339 69.3662 390.952 69.7522 390.952 70.2282Z" fill="#009EF3"/>
<path d="M384.295 70.2282C384.295 70.7042 384.681 71.0912 385.158 71.0912H388.962C389.438 71.0912 389.825 70.7052 389.825 70.2282C389.825 69.7522 389.439 69.3652 388.962 69.3652H385.158C384.682 69.3662 384.295 69.7522 384.295 70.2282Z" fill="#009EF3"/>
<path d="M389.526 64.8891V68.3061C389.526 68.7821 389.912 69.1691 390.389 69.1691C390.865 69.1691 391.251 68.7831 391.251 68.3061V64.8891C391.251 64.4131 390.865 64.0261 390.389 64.0261C389.912 64.0261 389.526 64.4121 389.526 64.8891Z" fill="#009EF3"/>
<path d="M389.526 72.1501V75.5671C389.526 76.0431 389.912 76.4291 390.389 76.4291C390.865 76.4291 391.251 76.0431 391.251 75.5671V72.1501C391.251 71.6741 390.865 71.2871 390.389 71.2871C389.912 71.2881 389.526 71.6741 389.526 72.1501Z" fill="#009EF3"/>
<path d="M397.156 99.6003C397.156 100.076 397.542 100.463 398.018 100.463H401.822C402.298 100.463 402.685 100.077 402.685 99.6003C402.685 99.1243 402.299 98.7373 401.822 98.7373H398.018C397.542 98.7373 397.156 99.1243 397.156 99.6003Z" fill="#0E0E0E"/>
<path d="M390.499 99.6003C390.499 100.076 390.885 100.463 391.362 100.463H395.166C395.642 100.463 396.029 100.077 396.029 99.6003C396.029 99.1243 395.643 98.7373 395.166 98.7373H391.362C390.885 98.7373 390.499 99.1243 390.499 99.6003Z" fill="#0E0E0E"/>
<path d="M395.729 94.2602V97.6772C395.729 98.1532 396.115 98.5402 396.592 98.5402C397.068 98.5402 397.455 98.1542 397.455 97.6772V94.2602C397.455 93.7842 397.069 93.3972 396.592 93.3972C396.116 93.3982 395.729 93.7842 395.729 94.2602Z" fill="#0E0E0E"/>
<path d="M395.729 101.522V104.939C395.729 105.415 396.115 105.802 396.592 105.802C397.068 105.802 397.455 105.416 397.455 104.939V101.522C397.455 101.046 397.069 100.659 396.592 100.659C396.116 100.66 395.729 101.046 395.729 101.522Z" fill="#0E0E0E"/>
<path d="M43.9438 132.557C43.9438 135.589 41.4768 138.056 38.4448 138.056C35.4128 138.056 32.9458 135.589 32.9458 132.557C32.9458 129.525 35.4128 127.058 38.4448 127.058C41.4768 127.058 43.9438 129.525 43.9438 132.557ZM42.2188 132.557C42.2188 130.476 40.5258 128.783 38.4448 128.783C36.3638 128.783 34.6708 130.476 34.6708 132.557C34.6708 134.638 36.3638 136.331 38.4448 136.331C40.5258 136.331 42.2188 134.639 42.2188 132.557Z" fill="#009EF3"/>
<path d="M66.392 125.139C66.392 128.171 63.925 130.638 60.893 130.638C57.861 130.638 55.394 128.171 55.394 125.139C55.394 122.107 57.861 119.64 60.893 119.64C63.925 119.639 66.392 122.106 66.392 125.139ZM64.667 125.139C64.667 123.058 62.974 121.365 60.893 121.365C58.812 121.365 57.119 123.058 57.119 125.139C57.119 127.22 58.812 128.913 60.893 128.913C62.974 128.913 64.667 127.22 64.667 125.139Z" fill="#2A365C"/>
<path d="M67.0944 101.53C66.6184 101.53 66.2314 101.916 66.2314 102.393V106.197C66.2314 106.674 66.6174 107.06 67.0944 107.06C67.5714 107.06 67.9574 106.674 67.9574 106.197V102.393C67.9574 101.916 67.5704 101.53 67.0944 101.53Z" fill="#0E0E0E"/>
<path d="M67.0944 94.8721C66.6184 94.8721 66.2314 95.2581 66.2314 95.7351V99.5391C66.2314 100.015 66.6174 100.402 67.0944 100.402C67.5714 100.402 67.9574 100.016 67.9574 99.5391V95.7351C67.9574 95.2591 67.5704 94.8721 67.0944 94.8721Z" fill="#0E0E0E"/>
<path d="M72.4348 100.103H69.0178C68.5418 100.103 68.1548 100.489 68.1548 100.966C68.1548 101.442 68.5408 101.829 69.0178 101.829H72.4348C72.9108 101.829 73.2978 101.443 73.2978 100.966C73.2968 100.489 72.9108 100.103 72.4348 100.103Z" fill="#0E0E0E"/>
<path d="M65.1726 100.103H61.7556C61.2796 100.103 60.8926 100.489 60.8926 100.966C60.8926 101.442 61.2786 101.829 61.7556 101.829H65.1726C65.6486 101.829 66.0356 101.443 66.0356 100.966C66.0346 100.489 65.6486 100.103 65.1726 100.103Z" fill="#0E0E0E"/>
<path d="M43.7839 107.623C43.3079 107.623 42.9209 108.009 42.9209 108.486V112.29C42.9209 112.767 43.3069 113.153 43.7839 113.153C44.2599 113.153 44.6469 112.767 44.6469 112.29V108.486C44.6469 108.009 44.2609 107.623 43.7839 107.623Z" fill="#61B3FF"/>
<path d="M43.7839 100.966C43.3079 100.966 42.9209 101.352 42.9209 101.829V105.633C42.9209 106.11 43.3069 106.496 43.7839 106.496C44.2599 106.496 44.6469 106.11 44.6469 105.633V101.829C44.6469 101.352 44.2609 100.966 43.7839 100.966Z" fill="#61B3FF"/>
<path d="M49.1242 106.196H45.7072C45.2312 106.196 44.8442 106.582 44.8442 107.059C44.8442 107.536 45.2302 107.922 45.7072 107.922H49.1242C49.6002 107.922 49.9862 107.536 49.9862 107.059C49.9862 106.583 49.6002 106.196 49.1242 106.196Z" fill="#61B3FF"/>
<path d="M41.862 106.196H38.445C37.969 106.196 37.582 106.582 37.582 107.059C37.582 107.536 37.968 107.922 38.445 107.922H41.862C42.338 107.922 42.725 107.536 42.725 107.059C42.724 106.583 42.338 106.196 41.862 106.196Z" fill="#61B3FF"/>
<path d="M61.507 161.484V179.848C61.507 181.024 60.556 181.968 59.388 181.968H41.016C40.21 181.968 39.514 181.525 39.151 180.865C39.115 180.792 39.078 180.72 39.057 180.647C39.021 180.538 38.984 180.429 38.948 180.313C38.948 180.299 38.941 180.291 38.941 180.277C38.941 180.263 38.934 180.241 38.934 180.226C38.912 180.103 38.8979 179.979 38.8979 179.849V161.485C38.8979 160.382 39.733 159.489 40.792 159.373C40.865 159.373 40.945 159.366 41.017 159.366H59.389C59.607 159.366 59.817 159.395 60.013 159.46C60.013 159.46 60.013 159.46 60.02 159.46C60.883 159.728 61.507 160.526 61.507 161.484Z" fill="#2A365C"/>
<path d="M51.5429 176.897L51.5279 178.728L49.2019 178.709L49.2159 176.96C47.5669 176.848 45.9699 176.389 44.9849 175.771L46.2619 172.943C47.3459 173.595 48.7939 174.02 50.0649 174.03C51.1699 174.039 51.5679 173.811 51.5719 173.415C51.5839 171.963 45.1889 173.083 45.2239 168.776C45.2389 166.912 46.6049 165.355 49.3139 164.998L49.3289 163.2L51.6549 163.219L51.6409 164.984C52.8609 165.11 54.0459 165.433 54.9829 165.968L53.7889 168.78C52.6549 168.193 51.5849 167.904 50.5789 167.896C49.4409 167.887 49.0749 168.214 49.0719 168.61C49.0609 169.996 55.4549 168.893 55.4199 173.15C55.4039 174.932 54.1039 176.472 51.5429 176.897Z" fill="#FEFDFF"/>
<path d="M277.453 102.82L279.988 103.657L281.333 104.1L285.143 105.356C285.143 105.356 341.895 59.448 327.352 32.101C322.875 23.682 309.341 24.205 301.75 52.351C294.713 78.441 277.453 102.82 277.453 102.82Z" fill="#F2ABAB"/>
<path d="M279.988 103.657L281.333 104.1C292.734 92.097 301.533 77.911 307.08 67.719C313.667 55.617 317.225 46.37 317.259 46.278C317.386 45.948 317.221 45.577 316.89 45.453C316.56 45.326 316.189 45.491 316.064 45.82C316.029 45.913 312.496 55.095 305.945 67.125C300.369 77.367 291.491 91.666 279.988 103.657Z" fill="#90C3EF"/>
<path d="M129.483 344.874L126.984 345.036L125.658 345.121L121.903 345.364C121.903 345.364 81.1899 290.315 100.836 268.911C106.884 262.322 119.048 265.984 119.311 293.327C119.555 318.674 129.483 344.874 129.483 344.874Z" fill="#F2ABAB"/>
<path d="M126.984 345.036L125.658 345.121C118.134 331.538 113.487 316.586 110.851 306.025C107.721 293.486 106.669 284.252 106.66 284.161C106.622 283.831 106.86 283.534 107.189 283.498C107.519 283.46 107.816 283.698 107.853 284.026C107.863 284.119 108.908 293.287 112.022 305.753C114.673 316.367 119.365 331.44 126.984 345.036Z" fill="#90C3EF"/>
<path d="M142.056 353.17L139.136 355.32L137.587 356.459L133.199 359.687C133.199 359.687 40.5769 324.373 47.8109 282.939C50.0379 270.183 67.7269 265.148 89.3999 298.275C109.491 328.983 142.056 353.17 142.056 353.17Z" fill="#FECACA"/>
<path d="M139.136 355.319L137.587 356.458C117.807 345.775 100.465 331.176 89.005 320.361C75.397 307.519 66.903 297.085 66.821 296.98C66.517 296.608 66.575 296.06 66.949 295.759C67.321 295.455 67.869 295.513 68.171 295.884C68.256 295.989 76.689 306.35 90.22 319.115C101.738 329.984 119.23 344.695 139.136 355.319Z" fill="#F2ABAB"/>
<path d="M264.288 111.65L267.081 114.323L268.563 115.74L272.761 119.754C272.761 119.754 375.523 95.0971 373.547 50.2991C372.939 36.5081 354.926 28.7621 327.475 60.8201C302.029 90.5371 264.288 111.65 264.288 111.65Z" fill="#FECACA"/>
<path d="M267.08 114.323L268.562 115.74C290.938 107.153 311.272 94.0921 324.869 84.2261C341.015 72.5111 351.423 62.6421 351.525 62.5431C351.897 62.1911 351.911 61.6041 351.557 61.2341C351.205 60.8621 350.618 60.8481 350.248 61.2001C350.144 61.3001 339.809 71.1001 323.755 82.7441C310.089 92.6561 289.582 105.815 267.08 114.323Z" fill="#F2ABAB"/>
<path d="M80.3917 81.6731C84.2057 92.8081 95.4497 91.9971 95.5847 101.159C95.7187 110.318 101.753 117.031 109.588 115.031C117.425 113.029 123.08 111.119 127.059 120.074C131.036 129.029 142.72 133.11 146.976 125.737C148.037 123.902 149.182 121.914 150.302 119.963C150.608 119.43 150.913 118.899 151.213 118.377C151.283 118.256 151.354 118.135 151.422 118.015C155.928 110.168 153.922 100.095 146.589 94.7941C143.62 92.6491 140.128 91.5171 136.274 92.8251C124.204 96.9171 128.104 84.4501 120.614 79.5491C111.987 73.9021 105.073 80.9751 99.1197 76.1081C90.8387 69.3391 76.5777 70.5381 80.3917 81.6731Z" fill="#F2ABAB"/>
<path d="M95.1655 85.9512L150.301 119.964C150.607 119.431 150.912 118.9 151.212 118.378L96.1265 84.3952C95.6965 84.1302 95.1335 84.2631 94.8685 84.6921C94.6025 85.1221 94.7355 85.6862 95.1655 85.9512Z" fill="#90C3EF"/>
<path d="M88.8618 19.4691C87.1828 33.9411 100.175 39.0311 95.4388 49.3361C90.7048 59.6381 93.8638 70.3541 103.682 72.2991C113.503 74.2431 120.838 75.1251 120.506 87.2491C120.172 99.3731 131.046 110.161 139.732 104.196C141.896 102.713 144.235 101.102 146.526 99.5211C147.152 99.0891 147.776 98.6591 148.389 98.2351C148.532 98.1381 148.675 98.0401 148.815 97.9421C158.032 91.5801 161.164 79.2601 155.801 69.4281C153.63 65.4491 150.333 62.3221 145.33 61.7281C129.667 59.8621 140.672 48.0161 134.918 38.5481C128.293 27.6401 116.799 31.8531 112.746 23.2411C107.11 11.2631 90.5408 4.99706 88.8618 19.4691Z" fill="#FECACA"/>
<path d="M103.083 32.1251L146.527 99.5201C147.153 99.0881 147.777 98.6581 148.39 98.2341L104.985 30.8991C104.646 30.3741 103.946 30.2221 103.421 30.5601C102.897 30.9001 102.745 31.6001 103.083 32.1251Z" fill="#F2ABAB"/>
<path d="M325.522 265.322C314.336 268.985 314.996 280.239 305.833 280.25C296.673 280.261 289.88 286.204 291.773 294.065C293.669 301.928 295.503 307.608 286.494 311.466C277.486 315.322 273.248 326.949 280.563 331.305C282.383 332.391 284.356 333.562 286.291 334.708C286.82 335.021 287.346 335.333 287.865 335.64C287.985 335.712 288.105 335.784 288.224 335.854C296.009 340.465 306.108 338.595 311.508 331.335C313.693 328.396 314.872 324.919 313.616 321.048C309.687 308.924 322.101 312.992 327.102 305.568C332.865 297.017 325.885 290.009 330.833 284.123C337.715 275.935 336.708 261.658 325.522 265.322Z" fill="#F2ABAB"/>
<path d="M321.046 280.037L286.293 334.709C286.822 335.022 287.348 335.334 287.867 335.641L322.589 281.018C322.86 280.592 322.735 280.027 322.309 279.756C321.883 279.486 321.317 279.611 321.046 280.037Z" fill="#90C3EF"/>
<path d="M368.057 288.654C353.609 286.78 348.344 299.702 338.104 294.828C327.866 289.955 317.109 292.97 315.032 302.761C312.956 312.555 311.975 319.877 299.856 319.382C287.738 318.884 276.804 329.612 282.651 338.378C284.105 340.562 285.683 342.922 287.234 345.234C287.658 345.865 288.079 346.496 288.495 347.115C288.59 347.259 288.686 347.403 288.783 347.545C295.02 356.847 307.297 360.145 317.2 354.915C321.208 352.797 324.379 349.543 325.041 344.549C327.118 328.912 338.814 340.076 348.359 334.451C359.356 327.974 355.298 316.424 363.963 312.487C376.015 307.01 382.505 290.528 368.057 288.654Z" fill="#FECACA"/>
<path d="M355.21 302.703L287.235 345.235C287.659 345.866 288.08 346.497 288.496 347.116L356.41 304.623C356.94 304.291 357.101 303.593 356.77 303.063C356.438 302.533 355.739 302.371 355.21 302.703Z" fill="#F2ABAB"/>
<path d="M138.982 232.921C124.848 216.635 99.6921 184.529 91.9421 171.634C81.8171 154.787 77.382 141.083 78.759 130.901C78.851 130.227 79.471 129.753 80.147 129.844C80.822 129.935 81.2951 130.557 81.2041 131.232C78.7961 149.029 93.275 175.038 140.215 230.694L138.982 232.921Z" fill="#F2ABAB"/>
<path d="M84.1678 155.863C84.1678 155.863 75.9378 162.07 65.5908 147.174C65.5908 147.174 80.8828 141.245 84.1678 155.863Z" fill="#FECACA"/>
<path d="M89.106 163.818C89.106 163.818 82.451 155.946 96.748 144.786C96.748 144.786 103.518 159.725 89.106 163.818Z" fill="#FECACA"/>
<path d="M80.0517 138.791C80.0517 138.791 71.1527 133.589 80.9107 118.3C80.9107 118.3 92.2747 130.127 80.0517 138.791Z" fill="#FECACA"/>
<path d="M98.545 180.13C98.545 180.13 92.9 188.755 78.123 178.237C78.123 178.237 90.509 167.486 98.545 180.13Z" fill="#FECACA"/>
<path d="M104.802 187.473C104.802 187.473 96.886 180.871 109.037 167.406C109.037 167.406 118.289 180.949 104.802 187.473Z" fill="#FECACA"/>
<path d="M112.371 198.378C112.371 198.378 106.89 207.108 91.917 196.873C91.917 196.873 104.096 185.889 112.371 198.378Z" fill="#FECACA"/>
<path d="M235.325 85.8891C242.66 65.6101 250.152 48.7501 257.637 35.6991C267.415 18.6481 277.221 8.09712 286.783 4.33912C287.417 4.09012 288.132 4.40212 288.382 5.03612C288.631 5.67012 288.319 6.38613 287.685 6.63513C270.97 13.2041 253.041 42.6891 235.784 91.9531L235.325 85.8891Z" fill="#F2ABAB"/>
<path d="M267.621 21.226C267.621 21.226 258.19 17.064 266.156 0.769043C266.156 0.769043 278.784 11.234 267.621 21.226Z" fill="#FECACA"/>
<path d="M263.079 29.4141C263.079 29.4141 266.71 19.7661 283.422 26.8131C283.422 26.8131 273.677 40.0041 263.079 29.4141Z" fill="#FECACA"/>
<path d="M280.523 9.31304C280.523 9.31304 280.73 -0.992956 298.835 0.0780443C298.835 0.0780443 294.045 15.764 280.523 9.31304Z" fill="#FECACA"/>
<path d="M253.435 45.6051C253.435 45.6051 243.152 44.8781 245.137 26.8501C245.137 26.8501 260.561 32.4261 253.435 45.6051Z" fill="#FECACA"/>
<path d="M250.072 54.647C250.072 54.647 251.98 44.517 269.659 48.567C269.659 48.567 262.341 63.245 250.072 54.647Z" fill="#FECACA"/>
<path d="M244.237 66.5701C244.237 66.5701 233.942 66.0381 235.585 47.9751C235.585 47.9751 251.111 53.2591 244.237 66.5701Z" fill="#FECACA"/>
<path d="M303.334 78.8141V370.227C303.334 379.362 295.931 386.765 286.796 386.765H141.678C137.088 386.765 132.939 384.898 129.942 381.881C126.975 378.889 125.141 374.773 125.141 370.227V78.8141C125.141 69.6791 132.544 62.2761 141.679 62.2761H286.797C289.497 62.2761 292.047 62.9221 294.299 64.0721C299.663 66.8051 303.334 72.3791 303.334 78.8141Z" fill="#2A365C"/>
<path d="M303.333 78.814V370.227C303.333 379.362 295.93 386.765 286.795 386.765H141.677C137.087 386.765 132.938 384.898 129.941 381.881L294.297 64.072C299.662 66.805 303.333 72.379 303.333 78.814Z" fill="#16162F"/>
<path d="M125.14 153.196H122.75C120.729 153.196 119.09 151.557 119.09 149.536V118.357C119.09 116.336 120.729 114.697 122.75 114.697H125.14V153.196Z" fill="#16162F"/>
<path d="M303.334 143.123H305.29C306.944 143.123 308.284 141.783 308.284 140.129V114.769C308.284 113.115 306.944 111.775 305.29 111.775H303.334V143.123Z" fill="#16162F"/>
<path d="M125.14 196.919H122.75C120.729 196.919 119.09 195.281 119.09 193.259V162.08C119.09 160.059 120.729 158.42 122.75 158.42H125.14V196.919Z" fill="#16162F"/>
<path d="M295.085 78.0951V370.947C295.085 375.126 291.695 378.516 287.516 378.516H140.959C137.843 378.516 135.168 376.633 134.008 373.943C133.609 373.024 133.39 372.012 133.39 370.947V78.0951C133.39 73.9141 136.778 70.5261 140.959 70.5261H287.517C288.622 70.5261 289.672 70.7621 290.616 71.1891C293.249 72.3721 295.085 75.0191 295.085 78.0951Z" fill="#FEFDFF"/>
<path d="M280.134 294.452H190.922C189.301 294.452 187.987 293.138 187.987 291.517C187.987 289.896 189.301 288.582 190.922 288.582H280.134C281.755 288.582 283.069 289.896 283.069 291.517C283.069 293.137 281.755 294.452 280.134 294.452Z" fill="#FECACA"/>
<path d="M280.134 307.168H190.922C189.301 307.168 187.987 305.854 187.987 304.233C187.987 302.612 189.301 301.298 190.922 301.298H280.134C281.755 301.298 283.069 302.612 283.069 304.233C283.069 305.854 281.755 307.168 280.134 307.168Z" fill="#FECACA"/>
<path d="M280.134 319.885H190.922C189.301 319.885 187.987 318.571 187.987 316.95C187.987 315.329 189.301 314.015 190.922 314.015H280.134C281.755 314.015 283.069 315.329 283.069 316.95C283.069 318.571 281.755 319.885 280.134 319.885Z" fill="#FECACA"/>
<path d="M180.029 288.591H148.75V319.87H180.029V288.591Z" fill="#FECACA"/>
<path d="M200.248 108.613H151.685C150.064 108.613 148.75 109.927 148.75 111.548C148.75 113.169 150.064 114.483 151.685 114.483H200.248C201.869 114.483 203.183 113.169 203.183 111.548C203.183 109.927 201.869 108.613 200.248 108.613Z" fill="#FECACA"/>
<path d="M200.248 121.33H151.685C150.064 121.33 148.75 122.644 148.75 124.265C148.75 125.886 150.064 127.2 151.685 127.2H200.248C201.869 127.2 203.183 125.886 203.183 124.265C203.183 122.644 201.869 121.33 200.248 121.33Z" fill="#FECACA"/>
<path d="M200.248 134.046H151.685C150.064 134.046 148.75 135.36 148.75 136.981C148.75 138.602 150.064 139.916 151.685 139.916H200.248C201.869 139.916 203.183 138.602 203.183 136.981C203.183 135.36 201.869 134.046 200.248 134.046Z" fill="#FECACA"/>
<path d="M280.046 108.613H231.483C229.862 108.613 228.548 109.927 228.548 111.548C228.548 113.169 229.862 114.483 231.483 114.483H280.046C281.667 114.483 282.981 113.169 282.981 111.548C282.981 109.927 281.667 108.613 280.046 108.613Z" fill="#FECACA"/>
<path d="M280.046 121.33H231.483C229.862 121.33 228.548 122.644 228.548 124.265C228.548 125.886 229.862 127.2 231.483 127.2H280.046C281.667 127.2 282.981 125.886 282.981 124.265C282.981 122.644 281.667 121.33 280.046 121.33Z" fill="#FECACA"/>
<path d="M280.046 134.046H231.483C229.862 134.046 228.548 135.36 228.548 136.981C228.548 138.602 229.862 139.916 231.483 139.916H280.046C281.667 139.916 282.981 138.602 282.981 136.981C282.981 135.36 281.667 134.046 280.046 134.046Z" fill="#FECACA"/>
<path d="M251.959 362.674H177.369C172.636 362.674 168.8 358.837 168.8 354.105V342.912C168.8 338.179 172.637 334.343 177.369 334.343H251.959C256.692 334.343 260.528 338.179 260.528 342.912V354.105C260.529 358.837 256.692 362.674 251.959 362.674Z" fill="#2A365C"/>
<path d="M184.819 357.076V341.947H192.102C193.514 341.947 194.732 342.178 195.755 342.639C196.792 343.1 197.592 343.763 198.153 344.627C198.715 345.477 198.996 346.486 198.996 347.653C198.996 348.82 198.715 349.828 198.153 350.679C197.592 351.514 196.792 352.155 195.755 352.602C194.732 353.049 193.514 353.272 192.102 353.272H187.65L189.919 351.176V357.076H184.819ZM193.874 357.076L190.157 351.565H195.56L199.321 357.076H193.874ZM189.919 351.737L187.65 349.425H191.778C192.484 349.425 193.003 349.267 193.334 348.95C193.68 348.633 193.853 348.2 193.853 347.653C193.853 347.105 193.68 346.673 193.334 346.356C193.003 346.039 192.484 345.881 191.778 345.881H187.65L189.919 343.568V351.737ZM205.591 347.566H212.334V351.24H205.591V347.566ZM205.936 353.229H213.501V357.076H200.922V341.947H213.22V345.794H205.936V353.229ZM215.464 357.076V341.947H219.657L227.351 351.154H225.406V341.947H230.376V357.076H226.184L218.49 347.869H220.435V357.076H215.464ZM236.119 357.076V345.902H231.689V341.947H245.65V345.902H241.219V357.076H236.119Z" fill="#16162F"/>
<path d="M184.819 355.443V340.314H192.102C193.514 340.314 194.732 340.545 195.755 341.006C196.792 341.467 197.592 342.13 198.153 342.994C198.715 343.844 198.996 344.853 198.996 346.02C198.996 347.187 198.715 348.196 198.153 349.046C197.592 349.881 196.792 350.523 195.755 350.969C194.732 351.416 193.514 351.639 192.102 351.639H187.65L189.919 349.543V355.443H184.819ZM193.874 355.443L190.157 349.932H195.56L199.321 355.443H193.874ZM189.919 350.105L187.65 347.792H191.778C192.484 347.792 193.003 347.634 193.334 347.317C193.68 347 193.853 346.568 193.853 346.02C193.853 345.472 193.68 345.04 193.334 344.723C193.003 344.406 192.484 344.248 191.778 344.248H187.65L189.919 341.935V350.105ZM205.591 345.934H212.334V349.608H205.591V345.934ZM205.936 351.596H213.501V355.443H200.922V340.314H213.22V344.161H205.936V351.596ZM215.464 355.443V340.314H219.657L227.351 349.521H225.406V340.314H230.376V355.443H226.184L218.49 346.236H220.435V355.443H215.464ZM236.119 355.443V344.269H231.689V340.314H245.65V344.269H241.219V355.443H236.119Z" fill="#FEFDFF"/>
<path d="M157.384 72.8261L165.4 85.0221C167.636 88.4241 171.434 90.4731 175.506 90.4731H252.971C257.042 90.4731 260.841 88.4241 263.076 85.0221L271.092 72.8261C271.092 71.5621 270.058 70.5261 268.792 70.5261H159.684C158.421 70.5261 157.384 71.5631 157.384 72.8261Z" fill="#2A365C"/>
<path d="M240.557 81.6442H174.181C172.832 81.6442 171.729 80.5402 171.729 79.1922C171.729 77.8432 172.833 76.7402 174.181 76.7402H240.557C241.906 76.7402 243.009 77.8442 243.009 79.1922C243.009 80.5402 241.905 81.6442 240.557 81.6442Z" fill="#445279"/>
<path d="M256.021 79.0282C256.021 80.6532 254.703 81.9712 253.078 81.9712C251.453 81.9712 250.135 80.6542 250.135 79.0282C250.135 77.4032 251.452 76.0852 253.078 76.0852C254.704 76.0852 256.021 77.4032 256.021 79.0282Z" fill="#445279"/>
<path d="M284.439 199.998H144.827V263.429H284.439V199.998Z" fill="#D7D7D7"/>
<path d="M284.439 199.998H144.827V205.035H284.439V199.998Z" fill="#7B7B7B"/>
<path d="M284.439 196.225H144.827L155.696 170.493H273.569L284.439 196.225Z" fill="#445279"/>
<path d="M288.868 196.051H138.624V199.998H288.868V196.051Z" fill="#2A365C"/>
<path d="M244.03 263.429H185.235V214.227L215.422 197.823L244.03 212.615V263.429Z" fill="#D7D7D7"/>
<path d="M186.819 218.712H181.875V263.429H186.819V218.712Z" fill="#7B7B7B"/>
<path d="M247.455 218.712H242.511V263.429H247.455V218.712Z" fill="#7B7B7B"/>
<path d="M224.689 230.315H204.575V263.513H224.689V230.315Z" fill="#2A365C"/>
<path d="M222.665 232.339H206.599V263.513H222.665V232.339Z" fill="#445279"/>
<path d="M221.636 248.871C221.636 249.803 220.881 250.558 219.949 250.558C219.017 250.558 218.262 249.803 218.262 248.871C218.262 247.939 219.017 247.184 219.949 247.184C220.881 247.184 221.636 247.939 221.636 248.871Z" fill="#2A365C"/>
<path d="M227.05 230.315H202.216C201.388 230.315 200.717 229.644 200.717 228.816V227.837H228.55V228.816C228.549 229.644 227.878 230.315 227.05 230.315Z" fill="#2A365C"/>
<path d="M213.746 234.627H208.789V244.719H213.746V234.627Z" fill="#FECACA"/>
<path d="M213.746 235.026V238.012L208.789 242.967V239.981L213.746 235.026Z" fill="#FEFDFF"/>
<path opacity="0.2" d="M213.746 234.627H208.789V236.054H213.746V234.627Z" fill="black"/>
<path d="M220.741 234.627H215.784V244.719H220.741V234.627Z" fill="#FECACA"/>
<path d="M220.741 235.026V238.012L215.784 242.967V239.981L220.741 235.026Z" fill="#FEFDFF"/>
<path opacity="0.2" d="M220.741 234.627H215.784V236.054H220.741V234.627Z" fill="black"/>
<path d="M288.868 196.079H138.624V193.953C138.624 192.155 140.081 190.698 141.879 190.698H285.614C287.412 190.698 288.869 192.155 288.869 193.953V196.079H288.868Z" fill="#2A365C"/>
<path d="M258.869 218.757L250.818 218.735L242.446 218.712L214.633 199.962L186.819 218.712L178.448 218.735L170.396 218.757L214.633 188.938L258.869 218.757Z" fill="#445279"/>
<path d="M250.818 218.735L242.446 218.712L214.633 199.962L186.819 218.712L178.448 218.735L214.633 194.342L250.818 218.735Z" fill="#2A365C"/>
<path d="M170.615 227.332H158.758V249.459H170.615V227.332Z" fill="#FECACA"/>
<path d="M170.615 227.332H166.436L158.79 234.978V241.226L170.615 229.401V227.332Z" fill="#FEFDFF"/>
<path d="M170.615 236.689L158.79 248.515V249.459H160.967L170.615 239.812V236.689Z" fill="#FEFDFF"/>
<path d="M157.138 225.712V251.078H170.615V225.712H157.138ZM158.759 227.331H168.965V237.559H158.759V227.331ZM158.759 249.458V239.23H168.965V249.458H158.759Z" fill="#445279"/>
<path opacity="0.2" d="M170.614 225.851H157.138V228.463H170.614V225.851Z" fill="black"/>
<path d="M171.987 225.712H155.767C155.082 225.712 154.527 225.157 154.527 224.472V223.662H173.227V224.472C173.227 225.157 172.671 225.712 171.987 225.712Z" fill="#2A365C"/>
<path d="M170.615 251.078H157.138V253.674H170.615V251.078Z" fill="#7B7B7B"/>
<path d="M274.957 227.332H263.1V249.459H274.957V227.332Z" fill="#FECACA"/>
<path d="M274.956 227.332H270.778L263.131 234.978V241.226L274.956 229.401V227.332Z" fill="#FEFDFF"/>
<path d="M274.956 236.689L263.131 248.515V249.459H265.308L274.956 239.812V236.689Z" fill="#FEFDFF"/>
<path d="M261.479 225.712V251.078H274.956V225.712H261.479ZM263.1 227.331H273.306V237.559H263.1V227.331ZM263.1 249.458V239.23H273.306V249.458H263.1Z" fill="#445279"/>
<path opacity="0.2" d="M274.956 225.851H261.48V228.463H274.956V225.851Z" fill="black"/>
<path d="M276.329 225.712H260.109C259.424 225.712 258.869 225.157 258.869 224.472V223.662H277.569V224.472C277.569 225.157 277.013 225.712 276.329 225.712Z" fill="#2A365C"/>
<path d="M274.956 251.078H261.479V253.674H274.956V251.078Z" fill="#7B7B7B"/>
<path d="M270.564 175.61H159.465C159.074 175.61 158.758 175.293 158.758 174.903V173.979C158.758 173.588 159.075 173.272 159.465 173.272H270.564C270.954 173.272 271.271 173.589 271.271 173.979V174.903C271.271 175.294 270.954 175.61 270.564 175.61Z" fill="#2A365C"/>
<path d="M272.051 181.758H157.117C156.726 181.758 156.41 181.441 156.41 181.051V180.127C156.41 179.736 156.727 179.42 157.117 179.42H272.052C272.443 179.42 272.759 179.737 272.759 180.127V181.051C272.759 181.441 272.442 181.758 272.051 181.758Z" fill="#2A365C"/>
<path d="M276.861 187.906H153.61C153.219 187.906 152.903 187.589 152.903 187.199V186.275C152.903 185.885 153.22 185.568 153.61 185.568H276.861C277.252 185.568 277.568 185.885 277.568 186.275V187.199C277.569 187.589 277.252 187.906 276.861 187.906Z" fill="#2A365C"/>
<path d="M179.467 162.368H163.877V179.954H179.467V162.368Z" fill="#D7D7D7"/>
<path d="M179.467 162.368H163.877V166.886H179.467V162.368Z" fill="#7B7B7B"/>
<path d="M182.722 156.418V158.507C182.722 158.811 182.686 159.108 182.618 159.393C182.218 161.097 180.686 162.368 178.861 162.368H164.483C162.657 162.368 161.125 161.097 160.726 159.393C160.658 159.108 160.622 158.811 160.622 158.507V156.418H182.722Z" fill="#445279"/>
<path d="M182.618 159.393C182.218 161.097 180.686 162.368 178.861 162.368H164.483C162.657 162.368 161.125 161.097 160.726 159.393H182.618Z" fill="#2A365C"/>
<path d="M287.026 267.364H142.066C141.409 267.364 140.876 266.831 140.876 266.174V264.62C140.876 263.963 141.409 263.43 142.066 263.43H287.026C287.683 263.43 288.216 263.963 288.216 264.62V266.174C288.216 266.831 287.684 267.364 287.026 267.364Z" fill="#445279"/>
<path d="M290.71 271.235H138.383C137.726 271.235 137.193 270.702 137.193 270.045V268.491C137.193 267.834 137.726 267.301 138.383 267.301H290.71C291.367 267.301 291.9 267.834 291.9 268.491V270.045C291.9 270.703 291.367 271.235 290.71 271.235Z" fill="#2A365C"/>
<path d="M186.819 218.758V224.734L215.015 206.585L242.511 224.734L242.446 218.758L214.633 200.009L186.819 218.758Z" fill="#7B7B7B"/>
<path opacity="0.3" d="M295.085 78.0952V370.947C295.085 375.126 291.695 378.516 287.516 378.516H140.959C137.843 378.516 135.168 376.633 134.008 373.943L290.616 71.1892C293.249 72.3722 295.085 75.0192 295.085 78.0952Z" fill="#FEFDFF"/>
<path d="M40.8007 333.254L52.9527 337.321C54.4897 337.834 56.1517 337.005 56.6637 335.469L66.9647 304.686L71.2257 291.956L53.5117 286.026L50.9877 293.568L38.9497 329.542C38.4347 331.076 39.2637 332.738 40.8007 333.254Z" fill="#445279"/>
<path d="M50.9888 293.568C54.5138 297.485 59.8458 302.1 66.9658 304.686L71.2268 291.956L53.5128 286.026L50.9888 293.568Z" fill="#445279"/>
<path d="M52.3748 337.127L51.1898 340.67L35.9298 386.273C34.9128 389.311 31.6278 390.948 28.5898 389.933C25.5548 388.915 23.9148 385.63 24.9328 382.593L38.7528 341.295L41.3778 333.447L52.3748 337.127Z" fill="#2A365C"/>
<path d="M52.3749 337.127L51.1899 340.67L38.7529 341.295L41.3779 333.447L52.3749 337.127Z" fill="#16162F"/>
<path d="M27.6537 227.181C18.3067 254.648 32.9937 284.494 60.4637 293.843C87.9327 303.191 117.778 288.5 127.126 261.033C136.474 233.564 121.786 203.717 94.3167 194.368C66.8467 185.021 37.0017 199.712 27.6537 227.181ZM35.2807 229.777C43.1827 206.557 68.5007 194.094 91.7207 201.996C114.941 209.898 127.4 235.218 119.498 258.437C111.597 281.654 86.2787 294.117 63.0587 286.215C39.8397 278.314 27.3797 252.994 35.2807 229.777Z" fill="#445279"/>
<path opacity="0.5" d="M33.0197 247.229C34.7407 271.693 56.0447 290.199 80.5117 288.478C82.6097 288.331 84.6667 288.039 86.6697 287.612C91.8597 286.508 96.6947 284.507 101.018 281.785C105.526 278.947 109.477 275.328 112.69 271.133C117.745 264.544 120.98 256.533 121.714 247.895C121.907 245.631 121.926 243.322 121.762 240.986C120.041 216.519 98.7367 198.013 74.2697 199.734C71.9327 199.898 69.6497 200.241 67.4327 200.749C58.9817 202.685 51.5007 207.013 45.6867 212.94C41.9827 216.708 38.9527 221.127 36.7767 225.988C34.6877 230.649 33.3827 235.717 33.0167 241.01C32.8727 243.054 32.8717 245.131 33.0197 247.229Z" fill="#FEFDFF"/>
<path opacity="0.5" d="M45.6846 212.94L112.689 271.133C117.744 264.544 120.979 256.533 121.713 247.895L67.4306 200.749C58.9796 202.685 51.4986 207.013 45.6846 212.94Z" fill="#FEFDFF"/>
<path opacity="0.5" d="M33.0146 241.01L86.6696 287.612C91.8596 286.508 96.6947 284.507 101.018 281.785L36.7757 225.988C34.6857 230.649 33.3806 235.717 33.0146 241.01Z" fill="#FEFDFF"/>
<path d="M330.017 364.425L329.457 374.517L337.644 374.696L338.646 364.095L330.017 364.425Z" fill="#FBA691"/>
<path d="M332.705 373.099C332.705 373.099 336.92 372.144 338.073 372.211C339.226 372.278 346.627 381.213 349.21 381.821C353.894 382.923 353.621 390.292 350.735 390.549C342.389 391.292 328.312 387.244 328.312 387.244C328.312 387.244 327.361 377.739 328.043 374.793C328.724 371.847 330.352 373.883 332.705 373.099Z" fill="#F20909"/>
<path d="M339.277 381.431C339.127 381.458 338.968 381.426 338.835 381.33C338.578 381.142 338.522 380.783 338.709 380.526C338.771 380.44 340.261 378.413 342.036 377.755C344.396 376.877 345.996 378.335 346.064 378.398C346.297 378.614 346.309 378.979 346.092 379.212C345.875 379.444 345.511 379.457 345.278 379.24C345.234 379.201 344.117 378.213 342.436 378.835C340.991 379.371 339.653 381.186 339.64 381.205C339.549 381.328 339.417 381.406 339.277 381.431Z" fill="#FEFDFF"/>
<path d="M337.752 379.629C337.603 379.656 337.443 379.624 337.31 379.528C337.053 379.341 336.996 378.981 337.184 378.724C337.247 378.638 338.737 376.611 340.511 375.953C342.873 375.074 344.472 376.532 344.539 376.596C344.772 376.812 344.784 377.177 344.567 377.409C344.351 377.642 343.986 377.655 343.753 377.437C343.709 377.398 342.591 376.41 340.911 377.032C339.459 377.571 338.128 379.383 338.115 379.401C338.024 379.526 337.893 379.603 337.752 379.629Z" fill="#FEFDFF"/>
<path d="M341.442 382.998C341.293 383.025 341.133 382.993 341 382.897C340.743 382.71 340.686 382.35 340.874 382.093C340.937 382.007 342.427 379.98 344.201 379.322C346.563 378.443 348.162 379.902 348.229 379.964C348.461 380.181 348.474 380.545 348.257 380.777C348.041 381.01 347.676 381.023 347.443 380.805C347.399 380.766 346.281 379.778 344.601 380.4C343.149 380.939 341.818 382.751 341.805 382.769C341.715 382.895 341.583 382.972 341.442 382.998Z" fill="#FEFDFF"/>
<path d="M360.124 241.458C360.124 241.458 359.954 243.828 359.644 247.758C359.564 248.798 359.474 249.948 359.374 251.198C358.314 264.388 356.264 288.238 354.024 305.158C350.884 328.878 340.994 367.858 340.994 367.858L330.784 367.508L329.774 367.468L327.354 367.388C327.354 367.388 329.054 342.728 331.224 321.318C332.654 307.198 333.504 273.788 333.914 252.688C334.124 241.808 334.224 234.198 334.224 234.198L360.124 241.458Z" fill="#2A365C"/>
<path d="M360.124 241.458C360.124 241.458 359.954 243.828 359.644 247.758C359.564 248.798 359.474 249.948 359.374 251.198C354.664 252.078 341.714 252.688 333.914 252.688C334.124 241.808 334.224 234.198 334.224 234.198L360.124 241.458Z" fill="#16162F"/>
<path d="M339.725 247.586C339.715 248.396 338.775 325.266 330.785 367.506L329.775 367.466C337.775 325.356 338.715 248.376 338.725 247.576L339.725 247.586Z" fill="#16162F"/>
<path d="M394.048 366.363L393.714 375.467L385.392 375.027L385.203 365.36L394.048 366.363Z" fill="#FBA691"/>
<path d="M391.592 375.048C391.592 375.048 393.405 372.686 394.816 372.809C396.227 372.932 406.992 381.754 410.714 382.524C414.436 383.294 413.67 386.031 412.965 387.426C412.26 388.82 383.202 386.457 383.202 386.457C383.202 386.457 382.531 377.787 383.521 375.153C384.509 372.519 388.664 375.632 391.592 375.048Z" fill="#F20909"/>
<path d="M397.523 381.181C397.39 381.218 397.243 381.204 397.115 381.128C396.866 380.981 396.784 380.661 396.93 380.412C396.979 380.329 398.148 378.366 399.694 377.616C401.75 376.615 403.324 377.793 403.39 377.843C403.619 378.018 403.663 378.347 403.487 378.576C403.312 378.805 402.984 378.849 402.754 378.673C402.711 378.641 401.615 377.847 400.15 378.557C398.891 379.168 397.841 380.926 397.831 380.944C397.76 381.064 397.648 381.146 397.523 381.181Z" fill="#FEFDFF"/>
<path d="M395.986 379.686C395.854 379.723 395.707 379.709 395.579 379.633C395.33 379.486 395.247 379.166 395.394 378.917C395.443 378.834 396.612 376.871 398.157 376.121C400.215 375.12 401.787 376.297 401.853 376.348C402.082 376.523 402.127 376.852 401.951 377.081C401.776 377.31 401.447 377.354 401.218 377.178C401.175 377.146 400.078 376.351 398.614 377.062C397.349 377.676 396.305 379.431 396.295 379.449C396.224 379.569 396.111 379.65 395.986 379.686Z" fill="#FEFDFF"/>
<path d="M399.617 382.407C399.484 382.445 399.337 382.43 399.209 382.355C398.96 382.208 398.877 381.888 399.024 381.639C399.073 381.556 400.242 379.593 401.788 378.842C403.846 377.841 405.419 379.018 405.485 379.069C405.714 379.244 405.757 379.573 405.582 379.802C405.407 380.031 405.078 380.075 404.849 379.899C404.806 379.867 403.708 379.073 402.245 379.783C400.98 380.397 399.936 382.152 399.926 382.17C399.854 382.29 399.742 382.372 399.617 382.407Z" fill="#FEFDFF"/>
<path d="M395.564 368.738L387.105 368.109L386.097 368.039L384.042 367.885C384.042 367.885 378.846 318.429 377.23 305.255C375.825 293.81 369.265 268.096 365.005 252.096C363.798 247.554 362.775 243.795 362.102 241.366C361.588 239.456 361.284 238.37 361.284 238.37L389.563 235.632C389.563 235.632 389.642 236.253 389.772 237.371C390.047 239.659 390.576 244.043 391.215 249.553C392.981 264.551 395.667 287.891 396.708 299.772C399.376 330.367 395.564 368.738 395.564 368.738Z" fill="#2A365C"/>
<path d="M391.215 249.554L365.005 252.095C363.798 247.553 362.775 243.794 362.102 241.365L389.772 237.371C390.047 239.66 390.577 244.044 391.215 249.554Z" fill="#16162F"/>
<path d="M387.105 368.109L386.097 368.039C385.606 352.746 384.105 314.55 381.041 298.358C377.19 277.947 368.335 248.226 368.244 247.926L369.207 247.64C369.298 247.941 378.168 277.713 382.024 298.175C385.108 314.468 386.621 352.846 387.105 368.109Z" fill="#16162F"/>
<path d="M387.958 164.991C388.513 168.687 389.086 172.233 389.586 175.203C390.39 179.993 390.998 183.284 390.998 183.284L395.337 195.719C396.824 199.972 401.761 201.883 405.725 199.74C405.793 199.707 405.87 199.678 405.93 199.631C407.377 198.517 408.528 196.354 409.597 191.264C409.597 191.264 409.597 191.264 409.597 191.262C409.631 190.822 413.476 171.846 413.511 165.016L404.72 164.181C404.343 163.359 402.457 173.12 402.039 172.219C401.773 171.638 401.496 171.039 401.217 170.433C400.75 169.426 400.265 168.385 399.773 167.322C399.073 165.815 398.351 164.261 397.621 162.695C392.247 151.131 386.524 138.894 386.524 138.894C384.668 139.931 386.203 153.22 387.958 164.991Z" fill="#FBA691"/>
<path d="M387.959 164.99C388.513 168.687 389.086 172.233 389.585 175.203C394.691 173.284 397.96 169.816 399.772 167.322C399.072 165.814 398.35 164.26 397.621 162.695L387.959 164.99Z" fill="#FD857D"/>
<path d="M399.633 187.239C399.663 187.241 399.689 187.239 399.719 187.238C399.991 187.222 400.216 187.01 400.241 186.732C400.833 180.095 401.547 175.175 402.04 172.22C401.773 171.639 401.495 171.04 401.216 170.434C400.743 173.041 399.846 178.588 399.127 186.632C399.1 186.939 399.325 187.209 399.633 187.239Z" fill="#FD857D"/>
<path d="M403.257 161.987C403.257 161.987 402.185 163.427 400.259 165.053C397.929 167.031 393.574 169.551 389.141 169.858C384.886 156.504 383.547 139.661 384.835 135.205C387.03 137.605 398.205 150.961 403.257 161.987Z" fill="black"/>
<path d="M400.258 162.217L400.398 162.3L401.582 162.979L401.861 162.481L412.143 162.199C413.012 162.178 413.725 161.505 413.802 160.639L415.692 139.15C415.701 139.042 415.703 138.935 415.692 138.835L416.086 138.23L414.846 137.518L414.797 137.492L414.762 137.472C414.516 137.348 414.237 137.279 413.941 137.288L403.037 137.587C402.168 137.608 401.455 138.281 401.382 139.146L399.492 160.635C399.436 161.289 399.753 161.882 400.258 162.217Z" fill="#2A365C"/>
<path d="M402.492 163.21L413.392 162.913C414.261 162.889 414.974 162.218 415.05 161.352L416.939 139.861C417.029 138.842 416.21 137.973 415.188 138.001L404.288 138.298C403.419 138.322 402.706 138.993 402.63 139.859L400.741 161.35C400.651 162.368 401.469 163.238 402.492 163.21Z" fill="#445279"/>
<path d="M416.112 149.271C417.122 149.387 416.284 150.87 416.951 152.949C417.781 155.539 413.481 166.181 413.481 166.181C409.306 168.078 404.295 164.749 404.295 164.749C404.295 164.749 403.22 156.641 404.222 152.977C404.222 152.977 404.814 149.703 404.988 147.782C405.161 145.873 406.012 143.684 406.616 144.072C407.22 144.46 407.37 146.02 407.383 147.204C407.395 148.388 407.634 150.652 407.634 150.652C407.634 150.652 407.959 147.855 408.009 146.313C408.059 144.772 407.94 142.322 408.879 141.841C410.06 141.236 410.396 144.519 410.548 145.709C410.7 146.899 410.232 150.598 410.232 150.598C410.232 150.598 411.038 146.448 410.835 145.219C410.631 143.989 410.377 141.589 410.438 140.572C410.499 139.555 411.805 139.723 412.198 140.975C412.591 142.227 413.041 144.743 413.149 145.586C413.287 146.661 413.024 150.241 413.024 150.241C413.024 150.241 413.537 146.164 413.504 145.087C413.477 144.212 413.207 142.483 413.518 141.475C413.83 140.467 415.039 140.275 415.425 142.923C415.81 145.571 415.875 145.884 415.8 146.677C415.669 148.074 415.43 149.622 415.589 150.197C415.669 150.484 415.998 150.488 415.998 150.488L416.112 149.271Z" fill="#FBA691"/>
<path d="M394.141 237.817C373.076 244.527 351.662 245.803 329.896 241.699C329.477 235.773 328.378 216.321 327.547 195.822C327.519 195.142 327.49 194.462 327.464 193.781C327.444 193.235 327.424 192.69 327.401 192.141C327.385 191.748 327.368 191.352 327.355 190.956C327.347 190.776 327.341 190.596 327.335 190.415C327.313 189.88 327.298 189.333 327.276 188.801C327.257 188.354 327.235 187.908 327.22 187.461C327.219 187.4 327.215 187.337 327.214 187.276C327.213 187.22 327.21 187.167 327.209 187.111C327.188 186.642 327.175 186.169 327.157 185.705C327.154 185.614 327.149 185.522 327.146 185.433C327.13 184.869 327.106 184.306 327.09 183.745C327.074 183.357 327.061 182.976 327.046 182.595C327.042 182.44 327.037 182.285 327.031 182.13C327.01 181.699 326.996 181.265 326.986 180.838C326.981 180.708 326.978 180.579 326.975 180.449C326.964 180.055 326.953 179.659 326.942 179.263C326.937 179.095 326.934 178.928 326.929 178.76C326.913 178.196 326.886 177.636 326.881 177.081C326.858 176.535 326.844 175.999 326.832 175.466C326.818 175.108 326.807 174.753 326.795 174.397C326.771 173.622 326.753 172.855 326.737 172.096C326.287 154.535 326.34 140.127 327.599 138.155C330.523 133.585 344.67 126.229 348.94 122.827L348.982 123.529C348.982 123.529 351.996 127.054 355.123 126.588C357.963 126.175 359.948 122.737 360.279 122.114C362.594 123.546 367.87 125.762 372.999 128.161C378.127 130.551 383.108 133.107 384.835 135.203C386.313 137.009 387.966 151.057 389.471 168.305L389.474 168.361C389.501 168.683 389.531 169.004 389.558 169.325L389.561 169.373C389.576 169.622 389.601 169.869 389.627 170.127C389.639 170.284 389.651 170.439 389.666 170.598C389.695 170.95 389.729 171.307 389.756 171.664C389.798 172.196 389.848 172.73 389.891 173.274C389.932 173.826 389.976 174.386 390.028 174.947C390.041 175.114 390.053 175.281 390.068 175.448C390.099 175.843 390.131 176.238 390.167 176.63C390.177 176.759 390.185 176.888 390.196 177.018C390.229 177.443 390.263 177.876 390.297 178.307L390.333 178.77C390.361 179.15 390.392 179.53 390.423 179.917C390.464 180.477 390.508 181.039 390.553 181.601C390.558 181.69 390.566 181.781 390.574 181.872C390.607 182.336 390.643 182.807 390.679 183.275C390.682 183.331 390.688 183.384 390.691 183.44C390.695 183.501 390.701 183.564 390.705 183.625C390.742 184.07 390.774 184.516 390.809 184.962C390.851 185.494 390.894 186.028 390.927 186.573C390.94 186.753 390.954 186.933 390.967 187.112C390.998 187.507 391.027 187.902 391.056 188.295C391.097 188.84 391.137 189.384 391.175 189.931C391.224 190.61 391.272 191.289 391.321 191.968C392.774 212.369 393.861 231.83 394.141 237.817Z" fill="black"/>
<path d="M390.067 175.448L326.94 179.262C326.935 179.094 326.932 178.927 326.927 178.759C326.911 178.195 326.884 177.635 326.879 177.08C326.856 176.534 326.842 175.998 326.83 175.465C326.816 175.107 326.805 174.752 326.793 174.396L389.664 170.597C389.693 170.949 389.727 171.306 389.754 171.663C389.796 172.195 389.846 172.729 389.889 173.273C389.93 173.825 389.974 174.385 390.026 174.946C390.039 175.114 390.052 175.281 390.067 175.448Z" fill="#F20909"/>
<path d="M390.703 183.625L327.218 187.461C327.217 187.4 327.213 187.337 327.212 187.276C327.211 187.22 327.208 187.167 327.207 187.111C327.186 186.642 327.173 186.169 327.155 185.705C327.152 185.614 327.147 185.522 327.144 185.433C327.128 184.869 327.104 184.306 327.088 183.745C327.072 183.357 327.059 182.976 327.044 182.595L390.331 178.771C390.359 179.151 390.39 179.531 390.421 179.918C390.462 180.478 390.506 181.04 390.551 181.602C390.556 181.691 390.564 181.782 390.572 181.873C390.605 182.337 390.641 182.808 390.677 183.276C390.68 183.332 390.686 183.385 390.689 183.441C390.693 183.501 390.7 183.564 390.703 183.625Z" fill="#F20909"/>
<path d="M391.32 191.969L327.546 195.822C327.518 195.142 327.489 194.462 327.463 193.781C327.443 193.235 327.423 192.69 327.4 192.141C327.384 191.748 327.367 191.352 327.354 190.956L390.966 187.113C390.997 187.508 391.026 187.903 391.055 188.296C391.096 188.841 391.136 189.385 391.174 189.932C391.223 190.611 391.272 191.29 391.32 191.969Z" fill="#F20909"/>
<path d="M382.474 159.744C384.465 162.121 387.494 167.597 388.858 170.13C389.044 170.478 389.199 170.77 389.317 170.991C389.472 171.282 389.558 171.45 389.565 171.463C389.609 171.55 389.674 171.617 389.753 171.663C389.711 171.148 389.667 170.636 389.623 170.125C389.603 169.872 389.579 169.619 389.558 169.37L389.555 169.329C389.276 168.813 388.946 168.207 388.578 167.542C387.034 164.763 384.843 161.024 383.238 159.106C383.062 158.895 382.748 158.868 382.536 159.044C382.325 159.22 382.3 159.534 382.474 159.744Z" fill="#F20909"/>
<path d="M340.255 142.918C340.26 142.918 340.266 142.917 340.271 142.917C348.774 142.131 355.133 138.19 358.97 135.022C363.127 131.59 365.247 128.387 365.335 128.252C365.486 128.022 365.421 127.714 365.192 127.564C364.961 127.413 364.654 127.478 364.503 127.707C364.419 127.834 355.957 140.468 340.18 141.927C339.906 141.952 339.705 142.194 339.73 142.468C339.755 142.736 339.988 142.934 340.255 142.918Z" fill="#F20909"/>
<path d="M377.007 227.084C377.266 227.068 377.473 226.854 377.474 226.59C377.475 226.315 377.254 226.091 376.979 226.09C362.946 226.018 354.181 219.439 349.299 213.933C343.991 207.946 341.984 201.89 341.964 201.829C341.879 201.568 341.599 201.424 341.337 201.51C341.076 201.595 340.933 201.875 341.017 202.136C341.099 202.39 343.094 208.421 348.527 214.562C353.546 220.234 362.555 227.011 376.974 227.085C376.986 227.085 376.996 227.085 377.007 227.084Z" fill="#F20909"/>
<path d="M365.156 218.761C365.375 218.748 365.567 218.59 365.613 218.365C365.669 218.096 365.495 217.833 365.226 217.777C352.882 215.227 349.925 205.225 349.896 205.125C349.822 204.861 349.546 204.706 349.283 204.781C349.019 204.855 348.865 205.129 348.938 205.394C348.969 205.504 349.717 208.115 352.078 211.08C354.251 213.809 358.261 217.355 365.024 218.752C365.07 218.761 365.114 218.764 365.156 218.761Z" fill="#F20909"/>
<path d="M332.868 161.11C331.179 163.709 328.83 169.51 327.781 172.189C327.639 172.556 327.52 172.865 327.43 173.1C327.311 173.406 327.245 173.585 327.241 173.597C327.17 173.788 326.996 173.908 326.804 173.92L326.794 173.921C326.784 173.668 326.776 173.414 326.768 173.163C326.621 173.172 326.475 173.181 326.333 173.184C326.391 173.034 326.531 172.666 326.731 172.148C326.983 171.497 327.333 170.604 327.747 169.587C328.945 166.641 330.67 162.665 332.031 160.569C332.182 160.338 332.489 160.272 332.72 160.423C332.953 160.572 333.016 160.882 332.868 161.11Z" fill="#F20909"/>
<path d="M337.614 92.1871C337.614 92.1871 336.202 85.9481 337.602 83.7111C339.002 81.4741 341.536 81.9661 344.054 79.3391C346.572 76.7111 354.832 78.5801 358.348 77.7221C360.282 77.2501 362.379 77.3871 364.269 76.8831C366.973 76.1631 368.601 78.7941 368.104 81.5111C367.788 83.2401 367.086 85.8501 364.661 86.6691C364.661 86.6691 340.775 83.7891 337.614 92.1871Z" fill="#2A365C"/>
<path d="M337.379 97.252C337.93 106.378 343.929 112.327 353.054 111.776C362.18 111.225 368.131 104.079 367.579 94.953C367.028 85.828 361.206 79.24 352.081 79.792C341.136 80.453 336.827 88.126 337.379 97.252Z" fill="#2A365C"/>
<path d="M339.666 101.057C339.666 101.057 336.926 97.8302 335.21 100.739C333.494 103.648 336.658 111.744 341.152 109.449L339.666 101.057Z" fill="#FD857D"/>
<path d="M339.99 106.959C339.819 106.969 339.656 106.866 339.597 106.697C338.728 104.191 336.025 103.317 335.998 103.309C335.792 103.245 335.677 103.025 335.742 102.82C335.806 102.614 336.025 102.499 336.23 102.563C336.356 102.602 339.335 103.556 340.336 106.441C340.407 106.645 340.299 106.867 340.095 106.938C340.06 106.95 340.025 106.957 339.99 106.959Z" fill="#F05B56"/>
<path d="M337.247 105.836C337.175 105.84 337.1 105.825 337.032 105.787C336.844 105.681 336.777 105.443 336.883 105.255C336.901 105.224 337.325 104.483 338.276 103.986C338.466 103.886 338.703 103.96 338.803 104.152C338.903 104.343 338.829 104.579 338.637 104.679C337.902 105.063 337.567 105.632 337.564 105.638C337.497 105.758 337.375 105.828 337.247 105.836Z" fill="#F05B56"/>
<path d="M365.795 99.4792C365.795 99.4792 368.126 95.9452 370.18 98.6272C372.234 101.309 370.068 109.726 365.33 107.989L365.795 99.4792Z" fill="#FD857D"/>
<path d="M366.184 105.376C366.354 105.366 366.504 105.243 366.542 105.068C367.103 102.476 369.682 101.283 369.707 101.271C369.903 101.182 369.991 100.951 369.903 100.755C369.815 100.558 369.583 100.47 369.387 100.559C369.266 100.613 366.424 101.918 365.778 104.903C365.732 105.114 365.866 105.322 366.077 105.368C366.113 105.376 366.149 105.378 366.184 105.376Z" fill="#F05B56"/>
<path d="M368.772 103.931C368.844 103.927 368.916 103.902 368.979 103.856C369.153 103.728 369.191 103.484 369.063 103.31C369.042 103.281 368.532 102.597 367.528 102.218C367.327 102.141 367.101 102.244 367.025 102.446C366.949 102.648 367.051 102.873 367.253 102.949C368.029 103.242 368.43 103.766 368.433 103.772C368.514 103.883 368.644 103.939 368.772 103.931Z" fill="#F05B56"/>
<path d="M359.905 115.345L360.401 123.556C360.401 123.556 358.205 127.885 354.911 128.37C351.62 128.859 348.446 125.147 348.446 125.147L347.932 116.648L359.905 115.345Z" fill="#FBA691"/>
<path d="M359.905 115.345L360.125 118.988C358.052 121.588 354.143 122.442 348.252 121.933L347.933 116.648L359.905 115.345Z" fill="#FD857D"/>
<path d="M338.311 100.984C338.373 101.458 338.442 101.936 338.519 102.421C338.716 103.636 338.957 104.883 339.256 106.12C339.267 106.164 339.275 106.206 339.286 106.244C340.754 112.232 343.593 118.034 349.05 119.62C361.412 123.209 365.106 112.573 366.469 106.419C366.619 105.736 366.747 104.978 366.85 104.172C366.854 104.141 366.857 104.107 366.863 104.07C366.977 103.164 367.065 102.202 367.128 101.212C367.176 100.479 367.21 99.7361 367.235 98.9871C367.302 97.1691 367.307 95.3491 367.286 93.7351C367.24 90.0481 364.834 86.7981 361.31 85.6861C356.231 84.0781 348.605 83.0221 341.709 87.5021C339.161 89.1551 337.675 92.0251 337.799 95.0591C337.869 96.7331 338.018 98.786 338.311 100.984Z" fill="#FBA691"/>
<path d="M347.967 101.207C348.02 102.083 347.611 102.821 347.054 102.855C346.497 102.889 346.002 102.205 345.949 101.329C345.896 100.453 346.305 99.7151 346.862 99.6811C347.419 99.6481 347.914 100.331 347.967 101.207Z" fill="#2A365C"/>
<path d="M360.339 100.46C360.392 101.336 359.983 102.074 359.426 102.108C358.869 102.142 358.374 101.458 358.321 100.582C358.268 99.7061 358.677 98.9681 359.234 98.9341C359.791 98.9001 360.286 99.5831 360.339 100.46Z" fill="#2A365C"/>
<path d="M361.758 94.9561C361.758 94.9561 358.499 93.8901 356.112 95.0971L356.44 96.4451C356.44 96.4451 360.019 95.9231 361.876 96.5481C362.005 96.0141 361.997 95.4821 361.758 94.9561Z" fill="#2A365C"/>
<path d="M342.88 96.0962C342.88 96.0962 345.987 94.6462 348.502 95.5562L348.339 96.9342C348.339 96.9342 344.723 96.8472 342.955 97.6912C342.762 97.1772 342.706 96.6482 342.88 96.0962Z" fill="#2A365C"/>
<path d="M353.571 107.607C352.923 107.726 352.233 107.593 352.126 107.57C351.915 107.526 351.78 107.319 351.824 107.108C351.867 106.897 352.075 106.761 352.286 106.805C352.659 106.882 353.533 106.95 353.854 106.667C353.916 106.612 353.996 106.512 353.977 106.274C353.869 104.906 352.674 100.476 352.661 100.431C352.605 100.223 352.728 100.008 352.936 99.9521C353.145 99.8951 353.359 100.019 353.415 100.227C353.465 100.412 354.642 104.773 354.755 106.212C354.798 106.754 354.569 107.077 354.369 107.253C354.151 107.446 353.865 107.552 353.571 107.607Z" fill="#FD857D"/>
<path d="M348.38 110.269C348.796 111.854 350.033 114.74 353.603 114.525C357.181 114.309 358.022 111.552 358.254 109.673L348.38 110.269Z" fill="#FEFDFF"/>
<path d="M367.219 99.4622L365.451 99.5692C365.539 97.7822 364.764 95.6772 364.146 94.2802C362.742 91.1122 365.227 89.5282 363.05 88.0312C360.873 86.5302 355.74 87.5402 352.134 87.6412C348.506 87.7432 342.69 88.1452 341.298 88.5582C339.902 88.9672 340.82 91.2712 341.449 93.0612C342.081 94.8472 339.945 96.9972 339.68 98.9032C339.604 99.4502 339.675 100.252 339.815 101.117L338.342 101.206C338.029 98.9242 337.873 96.7912 337.8 95.0582C337.676 92.0242 339.162 89.1542 341.709 87.5012C348.606 83.0212 356.233 84.0752 361.31 85.6832C364.834 86.7972 367.242 90.0462 367.289 93.7342C367.31 95.4882 367.3 97.4842 367.219 99.4622Z" fill="#2A365C"/>
<path d="M354.731 101.419C354.576 98.856 356.535 96.646 359.098 96.491C361.661 96.336 363.871 98.295 364.026 100.858C364.181 103.421 362.222 105.631 359.659 105.786C357.097 105.941 354.886 103.982 354.731 101.419ZM355.456 101.375C355.587 103.538 357.453 105.192 359.616 105.061C361.779 104.93 363.433 103.064 363.302 100.901C363.171 98.738 361.305 97.084 359.142 97.215C356.978 97.346 355.325 99.212 355.456 101.375Z" fill="#FEFDFF"/>
<path d="M342.028 102.187C341.873 99.6241 343.832 97.4141 346.394 97.2591C348.957 97.1041 351.167 99.0631 351.322 101.626C351.477 104.189 349.518 106.399 346.955 106.554C344.394 106.708 342.183 104.749 342.028 102.187ZM342.753 102.143C342.884 104.306 344.75 105.96 346.913 105.829C349.076 105.698 350.73 103.832 350.599 101.669C350.468 99.5061 348.602 97.8521 346.439 97.9831C344.276 98.1141 342.622 99.9801 342.753 102.143Z" fill="#FEFDFF"/>
<path d="M363.15 99.4081C363.242 99.4021 363.332 99.3621 363.399 99.2881C363.419 99.2661 365.406 97.0911 368.215 97.5691C368.412 97.6031 368.6 97.4701 368.634 97.2721C368.668 97.0741 368.535 96.8871 368.337 96.8531C365.125 96.3061 362.949 98.7021 362.858 98.8041C362.725 98.9541 362.738 99.1831 362.888 99.3161C362.962 99.3841 363.057 99.4141 363.15 99.4081Z" fill="#FEFDFF"/>
<path d="M342.638 100.648C342.756 100.641 342.869 100.576 342.932 100.465C343.031 100.291 342.971 100.07 342.797 99.97C342.653 99.888 339.237 97.965 336.466 98.595C336.271 98.639 336.148 98.8341 336.193 99.0291C336.237 99.2241 336.43 99.347 336.627 99.302C339.12 98.735 342.404 100.581 342.438 100.6C342.5 100.637 342.57 100.652 342.638 100.648Z" fill="#FEFDFF"/>
<path d="M351.005 100.597C351.012 100.585 351.803 99.3691 352.935 99.3011C354.055 99.2331 354.903 100.348 354.912 100.36L355.495 99.9272C355.451 99.8682 354.409 98.4851 352.892 98.5771C351.386 98.6681 350.433 100.146 350.393 100.209L351.005 100.597Z" fill="#FEFDFF"/>
<path d="M331.225 233.056L327.115 238.666C327.115 238.666 324.735 237.176 321.505 234.586C321.495 234.576 321.495 234.576 321.485 234.566C316.565 230.636 309.675 224.166 306.155 216.556C301.755 207.046 303.045 199.346 303.045 199.346C303.625 193.706 307.405 182.246 310.415 173.736C311.515 170.646 312.515 167.956 313.215 166.066L322.405 168.176L326.335 170.596L324.825 174.586L314.685 201.486C315.575 209.376 319.575 217.136 323.425 222.976C327.405 229.036 331.225 233.056 331.225 233.056Z" fill="#FBA691"/>
<path d="M331.225 233.056L327.115 238.666C327.115 238.666 324.735 237.176 321.505 234.586C321.495 234.576 321.495 234.576 321.485 234.566C320.775 230.326 321.205 224.336 323.425 222.976C327.405 229.036 331.225 233.056 331.225 233.056Z" fill="#FD857D"/>
<path d="M329.03 226.583C329.857 226.637 334.267 226.856 333.79 225.347C333.264 223.683 328.936 221.734 328.936 221.734C328.936 221.734 328.911 221.649 328.953 221.537L328.906 221.182L328.715 217.605C327.879 217.611 327.111 217.774 326.695 217.903C324.798 218.49 325.058 222.829 325.058 222.829C325.058 222.829 322.666 223.684 322.753 225.436C322.84 227.188 324.767 227.451 324.767 227.451C324.767 227.451 322.135 228.765 322.75 230.254C323.366 231.743 325.361 232.181 325.361 232.181C325.361 232.181 323.103 233.67 323.892 234.721C324.68 235.772 326.52 236.298 326.52 236.298C326.52 236.298 324.945 238.43 326.546 239.592C328.146 240.754 330.501 240.502 332.014 239.976C333.528 239.451 333.265 237.524 330.287 236.122C330.287 236.122 332.915 236.385 334.228 234.195C335.324 232.369 332.529 231.58 330.145 231.266C332.018 231.392 335.25 231.339 335.805 229.552C336.532 227.208 330.042 226.655 329.03 226.583Z" fill="#FBA691"/>
<path d="M326.335 170.596L324.825 174.586C321.775 174.776 316.315 174.866 310.415 173.736C311.515 170.646 312.515 167.956 313.215 166.066L322.405 168.176L326.335 170.596Z" fill="#FD857D"/>
<path d="M327.599 138.154C327.599 138.154 316.413 149.376 308.246 168.949C314.647 171.019 320.706 172.484 326.333 173.184C327.075 171.88 330.01 163.51 332.221 157.471L327.599 138.154Z" fill="black"/>
</svg>
